<svg width="34" height="34" viewBox="0 0 34 34" fill="none" xmlns="http://www.w3.org/2000/svg">
<circle cx="17" cy="17" r="16.5" stroke="#1E1E1E"/>
<path d="M17.4191 14.1488C16.7723 14.1488 16.14 14.3405 15.6022 14.6999C15.0644 15.0592 14.6453 15.57 14.3977 16.1675C14.1502 16.7651 14.0855 17.4226 14.2116 18.057C14.3378 18.6914 14.6493 19.2741 15.1066 19.7314C15.564 20.1888 16.1467 20.5002 16.7811 20.6264C17.4154 20.7526 18.073 20.6878 18.6705 20.4403C19.2681 20.1928 19.7788 19.7736 20.1382 19.2359C20.4975 18.6981 20.6893 18.0658 20.6893 17.419C20.6904 16.9893 20.6065 16.5635 20.4425 16.1663C20.2786 15.769 20.0377 15.4081 19.7338 15.1042C19.4299 14.8004 19.069 14.5595 18.6718 14.3955C18.2745 14.2316 17.8488 14.1477 17.4191 14.1488ZM17.4191 19.5487C16.9979 19.5487 16.5861 19.4238 16.2359 19.1897C15.8857 18.9557 15.6127 18.6231 15.4515 18.234C15.2903 17.8448 15.2482 17.4166 15.3303 17.0035C15.4125 16.5904 15.6153 16.2109 15.9132 15.9131C16.211 15.6153 16.5905 15.4124 17.0036 15.3303C17.4167 15.2481 17.8449 15.2903 18.234 15.4515C18.6232 15.6126 18.9558 15.8856 19.1898 16.2358C19.4238 16.5861 19.5487 16.9978 19.5487 17.419C19.5487 17.9838 19.3243 18.5255 18.925 18.9249C18.5256 19.3243 17.9839 19.5487 17.4191 19.5487ZM21.5906 14.0132C21.5906 14.1709 21.5438 14.3251 21.4562 14.4563C21.3686 14.5875 21.244 14.6897 21.0982 14.7501C20.9525 14.8104 20.7921 14.8262 20.6374 14.7955C20.4827 14.7647 20.3406 14.6887 20.229 14.5772C20.1175 14.4656 20.0415 14.3235 20.0107 14.1688C19.9799 14.014 19.9957 13.8537 20.0561 13.7079C20.1165 13.5622 20.2187 13.4376 20.3499 13.35C20.481 13.2623 20.6353 13.2155 20.793 13.2155C21.0045 13.2155 21.2074 13.2996 21.357 13.4492C21.5066 13.5987 21.5906 13.8016 21.5906 14.0132ZM23.7522 14.8108C23.7754 13.8192 23.4055 12.8587 22.7233 12.1387C22.0072 11.4478 21.0462 11.0691 20.0512 11.0859C19.0143 11.038 15.8238 11.038 14.7869 11.0859C13.7956 11.0644 12.8357 11.434 12.1149 12.1148C11.4326 12.8347 11.0627 13.7953 11.0859 14.7868C11.0381 15.8238 11.0381 19.0142 11.0859 20.0512C11.0627 21.0427 11.4326 22.0033 12.1149 22.7232C12.8357 23.404 13.7956 23.7736 14.7869 23.7521C15.8398 23.8159 18.9984 23.8159 20.0512 23.7521C21.0428 23.7753 22.0033 23.4054 22.7233 22.7232C23.4055 22.0033 23.7754 21.0427 23.7522 20.0512C23.8 19.0142 23.8 15.8238 23.7522 14.7868V14.8108ZM22.3962 21.1918C22.2879 21.4661 22.1244 21.7153 21.9159 21.9238C21.7073 22.1324 21.4582 22.2958 21.1838 22.4041C19.9456 22.6545 18.6798 22.7403 17.4191 22.6594C16.161 22.7404 14.8978 22.6546 13.6623 22.4041C13.3879 22.2958 13.1388 22.1324 12.9302 21.9238C12.7217 21.7153 12.5582 21.4661 12.4499 21.1918C12.1149 20.3463 12.1867 18.3522 12.1867 17.427C12.1867 16.5017 12.1149 14.4997 12.4499 13.6622C12.5551 13.3852 12.7174 13.1333 12.9263 12.9231C13.1352 12.7129 13.3859 12.5489 13.6623 12.4418C14.8978 12.1914 16.161 12.1055 17.4191 12.1866C18.6798 12.1057 19.9456 12.1915 21.1838 12.4418C21.4582 12.5501 21.7073 12.7136 21.9159 12.9222C22.1244 13.1307 22.2879 13.3799 22.3962 13.6542C22.7312 14.4997 22.6515 16.4938 22.6515 17.419C22.6515 18.3442 22.7312 20.3463 22.3962 21.1838V21.1918Z" fill="#1E1E1E"/>
</svg>
