<svg width="34" height="34" viewBox="0 0 34 34" fill="none" xmlns="http://www.w3.org/2000/svg">
<circle cx="17" cy="17" r="16.5" stroke="#1E1E1E"/>
<path d="M10.9005 14.7625H13.5798V23H10.9005V14.7625Z" fill="#1E1E1E"/>
<path d="M20.8767 14.848C20.8482 14.848 20.8197 14.8195 20.7912 14.8195C20.7627 14.8195 20.7057 14.791 20.6772 14.791C20.5347 14.7625 20.3922 14.734 20.1927 14.734C18.625 14.734 17.6273 15.8742 17.3138 16.3017V14.734H14.6345V22.9715H17.3138V18.468C17.3138 18.468 19.3375 15.6461 20.1927 17.7269C20.1927 19.5796 20.1927 22.9715 20.1927 22.9715H22.872V17.4133C22.9005 16.1877 22.0454 15.133 20.8767 14.848Z" fill="#1E1E1E"/>
<path d="M12.2116 11C12.9242 11 13.5228 11.5986 13.5228 12.3112C13.5228 13.0238 12.9242 13.6223 12.2116 13.6223C11.499 13.6223 10.9005 13.0238 10.9005 12.3112C10.9005 11.5986 11.499 11 12.2116 11Z" fill="#1E1E1E"/>
</svg>
